# xmcd
#
# Track frame offsets:
#	150
#	14380
#	26470
#	38412
#	50072
#	64415
#	83440
#	97490
#	109420
#	123352
#	135880
#	150087
#
# Disc length: 2219 seconds
#
# Revision: 1
# Processed by: cddbd v1.5PL3 Copyright (c) Steve Scherf et al.
# Submitted via: audiograbber 1.82.01
#
DISCID=9008a90c
DTITLE=Various Artist - Deutsche Country and Trucker Songs Folge 2
DYEAR=1900
DGENRE=
TTITLE0=Tom Astor - Take it easy - Nimms leicht 
TTITLE1=Trucks aus dem Zillertal -Die Straﬂe unter mir 
TTITLE2=Country Roads - Hallo guten Morgen Deutschland
TTITLE3=Geert Greve - Der alte Trucker
TTITLE4=Trucks aus dem Zillertal - Heisses Herz und kalte Schnauze
TTITLE5=Country Roads - Ein 30 Tonner Diesel
TTITLE6=Emser B. - On the Road
TTITLE7=Country Roads - Der Country Song
TTITLE8=Jonny Hill - Ich danke Dir
TTITLE9=Trucks aus dem Zillertal - Jessy und Mary Ann
TTITLE10=Steirer - Ja so ein Trucker der hat's schwer
TTITLE11=Trucks aus dem Zillertal - Old Blue Jeans
EXTD=
EXTT0=
EXTT1=
EXTT2=
EXTT3=
EXTT4=
EXTT5=
EXTT6=
EXTT7=
EXTT8=
EXTT9=
EXTT10=
EXTT11=
PLAYORDER=
